<svg xmlns="http://www.w3.org/2000/svg" xmlns:xlink="http://www.w3.org/1999/xlink" version="1.1" x="0px" y="0px" viewBox="0 0 30 37.5" xml:space="preserve"><g transform="translate(-30 -200)"><g xmlns="http://www.w3.org/2000/svg" xmlns:xlink="http://www.w3.org/1999/xlink"><rect x="37" y="226" width="16" height="2"/><g><path d="M53,212c0-8-6-8-6-8s-1-3-3-3c0,1,0,3,0,3h-1v1l-3,1v1l-5,3v2l1,2h3l2-2h4c0,0-6,3-6,11h12C49,217,53,220,53,212z      M42,208v-1h2C44,208,42,208,42,208z"/></g><rect x="38" y="224" width="14" height="1"/></g></g><text x="0" y="45" fill="#000000" font-size="5px" font-weight="bold" font-family="'Helvetica Neue', Helvetica, Arial-Unicode, Arial, Sans-serif">Created by Hea Poh Lin</text><text x="0" y="50" fill="#000000" font-size="5px" font-weight="bold" font-family="'Helvetica Neue', Helvetica, Arial-Unicode, Arial, Sans-serif">from the Noun Project</text></svg>